<?xml version="1.0" encoding="UTF-8" standalone="no"?>
<!-- Created with Inkscape (http://www.inkscape.org/) -->

<svg
   xmlns:dc="http://purl.org/dc/elements/1.1/"
   xmlns:cc="http://creativecommons.org/ns#"
   xmlns:rdf="http://www.w3.org/1999/02/22-rdf-syntax-ns#"
   xmlns:svg="http://www.w3.org/2000/svg"
   xmlns="http://www.w3.org/2000/svg"
   xmlns:sodipodi="http://sodipodi.sourceforge.net/DTD/sodipodi-0.dtd"
   xmlns:inkscape="http://www.inkscape.org/namespaces/inkscape"
   width="200.08586"
   height="171.25909"
   id="svg3196"
   version="1.1"
   inkscape:version="0.48.1 r9760"
   sodipodi:docname="Новый документ 8">
  <defs
     id="defs3198" />
  <sodipodi:namedview
     id="base"
     pagecolor="#ffffff"
     bordercolor="#666666"
     borderopacity="1.0"
     inkscape:pageopacity="0.0"
     inkscape:pageshadow="2"
     inkscape:zoom="0.35"
     inkscape:cx="54.996944"
     inkscape:cy="62.774691"
     inkscape:document-units="px"
     inkscape:current-layer="layer1"
     showgrid="false"
     fit-margin-top="0"
     fit-margin-left="0"
     fit-margin-right="0"
     fit-margin-bottom="0"
     inkscape:window-width="525"
     inkscape:window-height="429"
     inkscape:window-x="0"
     inkscape:window-y="0"
     inkscape:window-maximized="0" />
  <metadata
     id="metadata3201">
    <rdf:RDF>
      <cc:Work
         rdf:about="">
        <dc:format>image/svg+xml</dc:format>
        <dc:type
           rdf:resource="http://purl.org/dc/dcmitype/StillImage" />
        <dc:title></dc:title>
      </cc:Work>
    </rdf:RDF>
  </metadata>
  <g
     inkscape:label="Layer 1"
     inkscape:groupmode="layer"
     id="layer1"
     transform="translate(-320.00306,-423.87778)">
    <g
       transform="translate(38.636951,80.096534)"
       id="g3978"
       inkscape:export-xdpi="96"
       inkscape:export-ydpi="96">
      <g
         transform="translate(6.0609153,-129.8046)"
         id="g3971">
        <path
           transform="translate(-31.81981,159.60412)"
           sodipodi:type="arc"
           style="color:#000000;fill:#f8f8f8;fill-opacity:1;fill-rule:nonzero;stroke:#e4e4e4;stroke-width:10.62992096;stroke-linecap:round;stroke-linejoin:round;stroke-miterlimit:4;stroke-opacity:1;stroke-dasharray:none;marker:none;visibility:visible;display:inline;overflow:visible;enable-background:accumulate"
           id="path3826-3"
           sodipodi:cx="377.79706"
           sodipodi:cy="414.45084"
           sodipodi:rx="65.358116"
           sodipodi:ry="65.358116"
           d="m 443.15517,414.45084 c 0,36.09629 -29.26182,65.35811 -65.35811,65.35811 -36.09629,0 -65.35812,-29.26182 -65.35812,-65.35811 0,-36.09629 29.26183,-65.35812 65.35812,-65.35812 36.09629,0 65.35811,29.26183 65.35811,65.35812 z" />
        <path
           style="fill:none;stroke:#e4e4e4;stroke-width:5.31496048;stroke-linecap:butt;stroke-linejoin:miter;stroke-miterlimit:4;stroke-opacity:1;stroke-dasharray:none"
           d="m 347.49247,510.92042 0,125.764"
           id="path3850"
           inkscape:connector-curvature="0" />
        <path
           style="fill:none;stroke:#e4e4e4;stroke-width:5.31496048;stroke-linecap:round;stroke-linejoin:miter;stroke-miterlimit:4;stroke-opacity:1;stroke-dasharray:none"
           d="m 347.49247,510.41534 c 0,0 -34.34518,-1.66506 -34.34518,65.65993 0,60.10407 34.34518,61.6193 34.34518,61.6193 0,0 34.60318,1.46359 34.85027,-62.62946 0.24708,-64.09305 -34.85027,-64.64977 -34.85027,-64.64977 z"
           id="path3870"
           inkscape:connector-curvature="0"
           sodipodi:nodetypes="csczc" />
        <path
           style="fill:none;stroke:#e4e4e4;stroke-width:5.31496048;stroke-linecap:round;stroke-linejoin:miter;stroke-miterlimit:4;stroke-opacity:1;stroke-dasharray:none"
           d="m 281.83278,577.21799 c 6.7e-4,0.0661 0,0.14469 0,0.14469 0,0 0.5632,20.30964 64.65625,20.16664 64.09305,-0.14301 62.625,-20.16664 62.625,-20.16664 0,0 -0.0218,-0.0781 -0.0313,-0.14469"
           id="path3870-4"
           inkscape:connector-curvature="0"
           sodipodi:nodetypes="ccscc" />
        <path
           transform="translate(-31.683821,159.71994)"
           sodipodi:type="arc"
           style="color:#000000;fill:none;stroke:#e4e4e4;stroke-width:10.62992096;stroke-linecap:round;stroke-linejoin:round;stroke-miterlimit:4;stroke-opacity:1;stroke-dasharray:none;marker:none;visibility:visible;display:inline;overflow:visible;enable-background:accumulate"
           id="path3826-3-9"
           sodipodi:cx="377.79706"
           sodipodi:cy="414.45084"
           sodipodi:rx="65.358116"
           sodipodi:ry="65.358116"
           d="m 443.15517,414.45084 c 0,36.09629 -29.26182,65.35811 -65.35811,65.35811 -36.09629,0 -65.35812,-29.26182 -65.35812,-65.35811 0,-36.09629 29.26183,-65.35812 65.35812,-65.35812 36.09629,0 65.35811,29.26183 65.35811,65.35812 z" />
      </g>
      <g
         id="g3948">
        <path
           sodipodi:type="arc"
           style="color:#000000;fill:none;stroke:#c0c0c0;stroke-width:10.62992096;stroke-linecap:round;stroke-linejoin:round;stroke-miterlimit:4;stroke-opacity:1;stroke-dasharray:none;marker:none;visibility:visible;display:inline;overflow:visible;enable-background:accumulate"
           id="path3826"
           sodipodi:cx="377.79706"
           sodipodi:cy="414.45084"
           sodipodi:rx="65.358116"
           sodipodi:ry="65.358116"
           d="m 443.15517,414.45084 c 0,36.09629 -29.26182,65.35811 -65.35811,65.35811 -36.09629,0 -65.35812,-29.26182 -65.35812,-65.35811 0,-36.09629 29.26183,-65.35812 65.35812,-65.35812 36.09629,0 65.35811,29.26183 65.35811,65.35812 z" />
        <path
           style="fill:none;stroke:#c0c0c0;stroke-width:21.25984192;stroke-linecap:round;stroke-linejoin:miter;stroke-miterlimit:4;stroke-opacity:1;stroke-dasharray:none"
           d="m 428.30468,464.4534 42.42641,38.3858"
           id="path3828"
           inkscape:connector-curvature="0" />
      </g>
    </g>
  </g>
</svg>
